<svg width="160" height="160" viewBox="0 0 160 160" fill="none" xmlns="http://www.w3.org/2000/svg">
<g filter="url(#filter0_d_22_274)">
<g filter="url(#filter1_d_22_274)">
<circle cx="80" cy="78" r="50" fill="white"/>
</g>
<path d="M82.9189 94.1578H76.762C76.4935 94.1579 76.2277 94.1036 75.9807 93.9983C75.7337 93.8929 75.5106 93.7386 75.3249 93.5447C75.1392 93.3507 74.9946 93.1212 74.9 92.8699C74.8053 92.6186 74.7625 92.3508 74.7742 92.0825V87.9417C74.7742 87.8052 74.8284 87.6743 74.925 87.5778C75.0215 87.4812 75.1524 87.427 75.2889 87.427C75.4254 87.427 75.5563 87.4812 75.6529 87.5778C75.7494 87.6743 75.8036 87.8052 75.8036 87.9417V92.0825C75.7926 92.2153 75.8091 92.349 75.8521 92.4752C75.8952 92.6013 75.9639 92.7172 76.0539 92.8155C76.1439 92.9138 76.2533 92.9924 76.3751 93.0465C76.497 93.1005 76.6287 93.1287 76.762 93.1294H82.9189C83.2223 93.1377 83.5185 93.0365 83.7534 92.8442C83.9883 92.652 84.1461 92.3816 84.1979 92.0825V87.9417C84.1979 87.8052 84.2522 87.6743 84.3487 87.5778C84.4452 87.4812 84.5761 87.427 84.7126 87.427C84.8491 87.427 84.9801 87.4812 85.0766 87.5778C85.1731 87.6743 85.2273 87.8052 85.2273 87.9417V92.0825C85.1804 92.6578 84.9151 93.1934 84.4859 93.5793C84.0566 93.9652 83.4959 94.1722 82.9189 94.1578Z" fill="#2D74FF"/>
<path d="M84.2762 88.4565H75.7259C75.4843 88.4551 75.2509 88.3691 75.0661 88.2135C74.8814 88.0579 74.757 87.8425 74.7145 87.6047C74.283 85.5822 73.3037 83.7174 71.8836 82.2142C70.5199 80.6548 69.6342 78.7357 69.3323 76.6862C69.0305 74.6368 69.3253 72.5438 70.1815 70.6575C71.0378 68.7712 72.4192 67.1714 74.1606 66.0494C75.902 64.9275 77.9297 64.3308 80.0013 64.3308C82.0728 64.3308 84.1005 64.9275 85.842 66.0494C87.5834 67.1714 88.9648 68.7712 89.821 70.6575C90.6773 72.5438 90.9721 74.6368 90.6703 76.6862C90.3684 78.7357 89.4827 80.6548 88.1189 82.2142C86.6984 83.7173 85.7185 85.5821 85.2865 87.6047C85.2441 87.8423 85.1198 88.0576 84.9353 88.2132C84.7507 88.3687 84.5175 88.4548 84.2762 88.4565ZM79.9943 65.3648C78.1216 65.3654 76.2886 65.9053 74.7146 66.92C73.1405 67.9347 71.892 69.3811 71.1182 71.0866C70.3444 72.792 70.0781 74.6841 70.3511 76.5369C70.6241 78.3896 71.4249 80.1245 72.6578 81.5342C74.2018 83.1763 75.2637 85.212 75.7269 87.4178L84.271 87.4271C84.736 85.2182 85.7995 83.1797 87.3453 81.5348C88.5426 80.1658 89.3332 78.4893 89.6278 76.6947C89.9223 74.9 89.7091 73.0588 89.0122 71.379C88.3152 69.6991 87.1624 68.2477 85.6839 67.1887C84.2054 66.1296 82.4602 65.5052 80.6454 65.3859C80.4279 65.3722 80.2109 65.3652 79.9943 65.3648Z" fill="#2D74FF"/>
<path d="M80.0005 96.0313C79.3798 96.0303 78.7848 95.7832 78.346 95.3442C77.9071 94.9052 77.6603 94.3101 77.6596 93.6894C77.6581 93.5481 77.7105 93.4116 77.8061 93.3076C77.9018 93.2037 78.0335 93.1401 78.1743 93.1299H81.8287C81.9652 93.1299 82.0962 93.1841 82.1927 93.2806C82.2892 93.3772 82.3434 93.5081 82.3434 93.6446C82.3477 93.9555 82.2904 94.2642 82.1747 94.5529C82.059 94.8415 81.8873 95.1044 81.6694 95.3263C81.4516 95.5482 81.192 95.7247 80.9055 95.8457C80.6191 95.9667 80.3115 96.0298 80.0005 96.0313ZM78.776 94.1593C78.8711 94.4071 79.039 94.6203 79.2577 94.7706C79.4764 94.921 79.7356 95.0015 80.001 95.0015C80.2664 95.0015 80.5256 94.921 80.7443 94.7706C80.963 94.6203 81.131 94.4071 81.226 94.1593H78.776Z" fill="#2D74FF"/>
<path d="M74.5807 90.7231C74.4486 90.7231 74.3216 90.6724 74.2259 90.5814C74.1302 90.4904 74.0732 90.3661 74.0666 90.2342C74.06 90.1023 74.1043 89.9729 74.1904 89.8728C74.2765 89.7727 74.3978 89.7095 74.5292 89.6963L85.2901 88.5938C85.3585 88.5848 85.4279 88.5896 85.4944 88.6079C85.5609 88.6262 85.6229 88.6577 85.677 88.7005C85.7311 88.7433 85.776 88.7965 85.8091 88.857C85.8422 88.9175 85.8628 88.984 85.8697 89.0526C85.8766 89.1212 85.8696 89.1904 85.8492 89.2563C85.8288 89.3222 85.7954 89.3832 85.751 89.4359C85.7065 89.4886 85.6519 89.5319 85.5904 89.5631C85.529 89.5943 85.4618 89.6128 85.3931 89.6175L74.6322 90.72C74.6151 90.722 74.5979 90.7231 74.5807 90.7231Z" fill="#2D74FF"/>
<path d="M74.6599 92.8381C74.5234 92.8449 74.3898 92.7972 74.2885 92.7055C74.1871 92.6138 74.1263 92.4856 74.1195 92.3491C74.1127 92.2126 74.1604 92.079 74.2521 91.9776C74.3438 91.8763 74.472 91.8155 74.6085 91.8087L85.2901 90.7144C85.3585 90.7054 85.4279 90.7102 85.4944 90.7285C85.5608 90.7468 85.6229 90.7783 85.677 90.8211C85.7311 90.8639 85.776 90.9171 85.8091 90.9776C85.8422 91.0381 85.8628 91.1046 85.8697 91.1732C85.8766 91.2418 85.8696 91.311 85.8492 91.3769C85.8288 91.4428 85.7954 91.5038 85.751 91.5565C85.7065 91.6092 85.6519 91.6525 85.5904 91.6837C85.529 91.7149 85.4618 91.7334 85.3931 91.7381L74.7124 92.8355C74.695 92.8374 74.6775 92.8382 74.6599 92.8381Z" fill="#2D74FF"/>
<path d="M79.9604 63.1397C79.8239 63.1397 79.6929 63.0855 79.5964 62.9889C79.4999 62.8924 79.4457 62.7615 79.4457 62.625V60.5147C79.4457 60.3782 79.4999 60.2473 79.5964 60.1508C79.6929 60.0542 79.8239 60 79.9604 60C80.0969 60 80.2278 60.0542 80.3243 60.1508C80.4208 60.2473 80.4751 60.3782 80.4751 60.5147V62.625C80.4751 62.7615 80.4208 62.8924 80.3243 62.9889C80.2278 63.0855 80.0969 63.1397 79.9604 63.1397Z" fill="#2D74FF"/>
<path d="M73.7783 64.8182C73.6878 64.8184 73.5988 64.7947 73.5203 64.7495C73.4419 64.7043 73.3768 64.6392 73.3315 64.5608L72.2779 62.7347C72.2107 62.6165 72.193 62.4766 72.2286 62.3454C72.2642 62.2143 72.3503 62.1025 72.468 62.0345C72.5857 61.9666 72.7255 61.9479 72.8569 61.9827C72.9883 62.0174 73.1006 62.1027 73.1694 62.22L74.2235 64.0461C74.2686 64.1243 74.2924 64.2131 74.2924 64.3034C74.2925 64.3937 74.2687 64.4824 74.2236 64.5606C74.1785 64.6388 74.1136 64.7038 74.0354 64.749C73.9573 64.7943 73.8686 64.8181 73.7783 64.8182Z" fill="#2D74FF"/>
<path d="M69.2617 69.363C69.1714 69.3632 69.0826 69.3394 69.0044 69.2941L67.1793 68.2394C67.1186 68.2068 67.0651 68.1623 67.0219 68.1086C66.9788 68.0549 66.9468 67.993 66.928 67.9268C66.9092 67.8605 66.9039 67.7911 66.9124 67.7227C66.9209 67.6543 66.943 67.5884 66.9775 67.5287C67.012 67.4691 67.058 67.4169 67.113 67.3754C67.168 67.3339 67.2308 67.3038 67.2976 67.287C67.3644 67.2702 67.4339 67.267 67.502 67.2776C67.5701 67.2881 67.6354 67.3122 67.694 67.3485L69.5196 68.4026C69.6177 68.4592 69.6944 68.5467 69.7378 68.6514C69.7811 68.756 69.7887 68.8721 69.7594 68.9815C69.7301 69.091 69.6655 69.1877 69.5756 69.2567C69.4857 69.3256 69.3756 69.363 69.2623 69.363H69.2617Z" fill="#2D74FF"/>
<path d="M67.625 75.5565H65.5147C65.3782 75.5565 65.2473 75.5023 65.1508 75.4058C65.0542 75.3092 65 75.1783 65 75.0418C65 74.9053 65.0542 74.7744 65.1508 74.6779C65.2473 74.5813 65.3782 74.5271 65.5147 74.5271H67.625C67.7615 74.5271 67.8924 74.5813 67.9889 74.6779C68.0855 74.7744 68.1397 74.9053 68.1397 75.0418C68.1397 75.1783 68.0855 75.3092 67.9889 75.4058C67.8924 75.5023 67.7615 75.5565 67.625 75.5565Z" fill="#2D74FF"/>
<path d="M67.4778 82.7932C67.3645 82.7932 67.2544 82.7558 67.1645 82.6868C67.0746 82.6178 67.01 82.5211 66.9806 82.4117C66.9513 82.3023 66.9589 82.1862 67.0023 82.0815C67.0456 81.9769 67.1223 81.8894 67.2204 81.8328L69.0466 80.7786C69.1052 80.7448 69.1698 80.7229 69.2369 80.7141C69.3039 80.7053 69.372 80.7098 69.4373 80.7273C69.5027 80.7448 69.5639 80.775 69.6175 80.8162C69.6711 80.8574 69.7161 80.9087 69.7499 80.9673C69.7837 81.0258 69.8057 81.0905 69.8145 81.1575C69.8233 81.2246 69.8188 81.2927 69.8013 81.358C69.7838 81.4233 69.7536 81.4846 69.7124 81.5382C69.6712 81.5918 69.6199 81.6368 69.5613 81.6706L67.7351 82.7247C67.6568 82.7697 67.5681 82.7933 67.4778 82.7932Z" fill="#2D74FF"/>
<path d="M86.2238 64.8182C86.1335 64.8181 86.0448 64.7943 85.9666 64.749C85.8884 64.7038 85.8235 64.6388 85.7784 64.5606C85.7333 64.4824 85.7096 64.3937 85.7096 64.3034C85.7096 64.2131 85.7334 64.1243 85.7786 64.0461L86.8306 62.22C86.8994 62.1027 87.0117 62.0174 87.1431 61.9827C87.2745 61.9479 87.4143 61.9666 87.532 62.0345C87.6497 62.1025 87.7358 62.2143 87.7714 62.3454C87.807 62.4766 87.7893 62.6165 87.7221 62.7347L86.668 64.5608C86.6229 64.6389 86.5582 64.7037 86.4803 64.7488C86.4023 64.794 86.3139 64.8179 86.2238 64.8182Z" fill="#2D74FF"/>
<path d="M90.7424 69.363C90.6291 69.363 90.5189 69.3256 90.4291 69.2567C90.3392 69.1877 90.2746 69.091 90.2452 68.9815C90.2159 68.8721 90.2235 68.756 90.2669 68.6514C90.3102 68.5467 90.3869 68.4592 90.485 68.4026L92.3107 67.3485C92.3693 67.3122 92.4345 67.2881 92.5026 67.2776C92.5707 67.267 92.6402 67.2702 92.707 67.287C92.7739 67.3038 92.8366 67.3339 92.8916 67.3754C92.9466 67.4169 92.9927 67.4691 93.0271 67.5287C93.0616 67.5884 93.0837 67.6543 93.0922 67.7227C93.1007 67.7911 93.0954 67.8605 93.0766 67.9268C93.0578 67.993 93.0259 68.0549 92.9827 68.1086C92.9395 68.1623 92.886 68.2068 92.8254 68.2394L90.9997 69.2941C90.9216 69.3394 90.8327 69.3632 90.7424 69.363Z" fill="#2D74FF"/>
<path d="M94.4853 75.5565H92.375C92.2385 75.5565 92.1076 75.5023 92.0111 75.4058C91.9145 75.3092 91.8603 75.1783 91.8603 75.0418C91.8603 74.9053 91.9145 74.7744 92.0111 74.6779C92.1076 74.5813 92.2385 74.5271 92.375 74.5271H94.4853C94.6218 74.5271 94.7527 74.5813 94.8492 74.6779C94.9458 74.7744 95 74.9053 95 75.0418C95 75.1783 94.9458 75.3092 94.8492 75.4058C94.7527 75.5023 94.6218 75.5565 94.4853 75.5565Z" fill="#2D74FF"/>
<path d="M92.5243 82.7932C92.434 82.7932 92.3453 82.7696 92.2669 82.7247L90.4418 81.6706C90.3832 81.6368 90.3319 81.5918 90.2907 81.5382C90.2495 81.4846 90.2193 81.4233 90.2018 81.358C90.1843 81.2927 90.1798 81.2246 90.1886 81.1575C90.1974 81.0905 90.2193 81.0258 90.2531 80.9673C90.2869 80.9087 90.3319 80.8574 90.3856 80.8162C90.4392 80.775 90.5004 80.7448 90.5657 80.7273C90.6311 80.7098 90.6992 80.7053 90.7662 80.7141C90.8333 80.7229 90.8979 80.7448 90.9565 80.7786L92.7816 81.8328C92.8797 81.8894 92.9564 81.9769 92.9998 82.0815C93.0431 82.1862 93.0507 82.3023 93.0214 82.4117C92.9921 82.5211 92.9275 82.6178 92.8376 82.6868C92.7477 82.7558 92.6376 82.7932 92.5243 82.7932Z" fill="#2D74FF"/>
<path d="M77.7827 88.4565C77.6665 88.4564 77.5539 88.417 77.463 88.3448C77.372 88.2726 77.3082 88.1717 77.2819 88.0586L74.7866 77.3523C74.7655 77.2617 74.7694 77.1671 74.7978 77.0786C74.8261 76.9901 74.878 76.9109 74.9478 76.8494C75.0175 76.788 75.1027 76.7466 75.1941 76.7296C75.2855 76.7127 75.3798 76.7208 75.467 76.7532L77.7996 77.6194L79.7344 76.45C79.8148 76.4014 79.9069 76.3757 80.0008 76.3757C80.0947 76.3757 80.1868 76.4014 80.2671 76.45L82.2024 77.6194L84.533 76.7532C84.6202 76.7208 84.7145 76.7127 84.8059 76.7296C84.8973 76.7466 84.9825 76.788 85.0522 76.8494C85.122 76.9109 85.1739 76.9901 85.2022 77.0786C85.2306 77.1671 85.2345 77.2617 85.2134 77.3523L82.7202 88.0581C82.6892 88.1911 82.6067 88.3063 82.4908 88.3784C82.3748 88.4505 82.235 88.4736 82.102 88.4426C81.9691 88.4116 81.8539 88.3291 81.7818 88.2132C81.7097 88.0972 81.6866 87.9574 81.7176 87.8244L83.9936 78.0507L82.328 78.6684C82.2553 78.6951 82.1775 78.7052 82.1003 78.6979C82.0232 78.6906 81.9487 78.6661 81.8823 78.6262L80.0005 77.4923L78.1198 78.6288C78.0535 78.6689 77.9789 78.6936 77.9018 78.7009C77.8246 78.7082 77.7467 78.6979 77.6741 78.671L76.008 78.0533L78.2866 87.825C78.3174 87.9579 78.2941 88.0977 78.2219 88.2135C78.1498 88.3293 78.0345 88.4117 77.9016 88.4426C77.8626 88.4517 77.8227 88.4563 77.7827 88.4565Z" fill="#2D74FF"/>
</g>
<defs>
<filter id="filter0_d_22_274" x="5" y="7" width="150" height="150" filterUnits="userSpaceOnUse" color-interpolation-filters="sRGB">
<feFlood flood-opacity="0" result="BackgroundImageFix"/>
<feColorMatrix in="SourceAlpha" type="matrix" values="0 0 0 0 0 0 0 0 0 0 0 0 0 0 0 0 0 0 127 0" result="hardAlpha"/>
<feOffset dy="4"/>
<feGaussianBlur stdDeviation="12.5"/>
<feColorMatrix type="matrix" values="0 0 0 0 0 0 0 0 0 0 0 0 0 0 0 0 0 0 0.1 0"/>
<feBlend mode="normal" in2="BackgroundImageFix" result="effect1_dropShadow_22_274"/>
<feBlend mode="normal" in="SourceGraphic" in2="effect1_dropShadow_22_274" result="shape"/>
</filter>
<filter id="filter1_d_22_274" x="0" y="0" width="160" height="160" filterUnits="userSpaceOnUse" color-interpolation-filters="sRGB">
<feFlood flood-opacity="0" result="BackgroundImageFix"/>
<feColorMatrix in="SourceAlpha" type="matrix" values="0 0 0 0 0 0 0 0 0 0 0 0 0 0 0 0 0 0 127 0" result="hardAlpha"/>
<feOffset dy="2"/>
<feGaussianBlur stdDeviation="15"/>
<feColorMatrix type="matrix" values="0 0 0 0 0 0 0 0 0 0 0 0 0 0 0 0 0 0 0.02 0"/>
<feBlend mode="normal" in2="BackgroundImageFix" result="effect1_dropShadow_22_274"/>
<feBlend mode="normal" in="SourceGraphic" in2="effect1_dropShadow_22_274" result="shape"/>
</filter>
</defs>
</svg>
